<svg xmlns="http://www.w3.org/2000/svg" id="Layer_2" viewBox="0 0 651.97 180.35"><defs><style>.cls-1{fill:#d82c30;}.cls-2{fill:#231f20;}</style></defs><g id="Layer_1-2"><g><g><path class="cls-2" d="M180.76,125.13V53.52h21.33V123.81c0,2.54,.55,4.46,1.64,5.78,1.09,1.31,2.73,1.97,4.92,1.97h20.54v12.67h-30.39c-6.17,0-10.72-1.64-13.65-4.92-2.93-3.28-4.4-8.01-4.4-14.18Z"></path><path class="cls-2" d="M239.76,123.16v-46.07h21.33v46.73c0,3.41,.66,5.89,1.97,7.42,1.31,1.53,3.06,2.3,5.25,2.3s3.72-.55,4.59-1.64v-54.8h21.39v67.14h-25.33c-11.42,0-19.14-2.08-23.17-6.23-4.03-4.16-6.04-9.1-6.04-14.83Z"></path><path class="cls-2" d="M327.57,77.09h13.65c6.43,0,11.33,1.75,14.7,5.25,3.37,3.5,5.05,8.12,5.05,13.85v28.88c0,5.73-1.68,10.35-5.05,13.85-3.37,3.5-8.27,5.25-14.7,5.25h-15.29c-6.43,0-11.33-1.75-14.7-5.25-3.37-3.5-5.05-8.12-5.05-13.85V53.52h21.4v23.56Zm10.43,54.08c1.09-1.53,1.64-3.57,1.64-6.1v-29.53c0-2.54-.55-4.46-1.64-5.78-1.09-1.31-2.57-1.97-4.43-1.97s-3.34,.66-4.43,1.97c-1.09,1.31-1.64,3.24-1.64,5.78v29.53c0,2.54,.55,4.57,1.64,6.1,1.09,1.53,2.57,2.3,4.43,2.3s3.34-.76,4.43-2.3Z"></path><path class="cls-2" d="M394.18,114.03v11.03c0,2.54,.55,4.57,1.64,6.1,1.09,1.53,2.57,2.3,4.43,2.3s3.34-.76,4.43-2.3c1.09-1.53,1.64-3.57,1.64-6.1v-3.81h21.33v3.81c0,5.73-1.68,10.35-5.05,13.85-3.37,3.5-8.27,5.25-14.7,5.25h-15.29c-6.43,0-11.33-1.75-14.7-5.25-3.37-3.5-5.05-8.12-5.05-13.85v-28.88c0-5.73,1.68-10.35,5.05-13.85,3.37-3.5,8.27-5.25,14.7-5.25h15.29c6.43,0,11.33,1.75,14.7,5.25,3.37,3.5,5.05,8.12,5.05,13.85,0,11.9-11.16,17.85-33.47,17.85Zm12.14-18.51c0-2.54-.55-4.46-1.64-5.78-1.09-1.31-2.57-1.97-4.43-1.97s-3.34,.66-4.43,1.97c-1.09,1.31-1.64,3.24-1.64,5.78v10.11c8.09,0,12.14-3.37,12.14-10.11Z"></path><path class="cls-2" d="M494.33,98.15v46.07h-21.33v-46.73c0-3.41-.66-5.88-1.97-7.42-1.31-1.53-3.06-2.3-5.25-2.3s-3.72,.55-4.59,1.64v54.8h-21.39V77.09h25.33c11.42,0,19.14,2.08,23.17,6.23,4.02,4.16,6.04,9.1,6.04,14.83Z"></path><path class="cls-2" d="M527.8,89.1v35.37c0,2.54,.66,4.46,1.97,5.78,1.31,1.31,3.5,1.97,6.56,1.97h15.95v12.01h-25.79c-6.61,0-11.59-1.97-14.96-5.91-3.37-3.94-5.05-8.99-5.05-15.16V60.09h21.33v17h17.65v12.01h-17.65Z"></path><path class="cls-2" d="M562.98,69.28v-13.45h21.39v13.45h-21.39Zm21.39,7.81v67.14h-21.39V77.09h21.39Z"></path><path class="cls-2" d="M597.17,94.21c0-4.86,1.68-8.93,5.05-12.21,3.37-3.28,8.27-4.92,14.7-4.92h15.29c6.43,0,11.33,1.75,14.7,5.25,3.37,3.5,5.05,8.12,5.05,13.85v3.81h-21.33v-4.46c0-2.54-.55-4.46-1.64-5.78-1.09-1.31-2.57-1.97-4.43-1.97s-3.34,.66-4.43,1.97c-1.09,1.31-1.64,3.24-1.64,5.78,0,4.24,2.45,7.13,7.35,8.66l9.39,2.95c11.16,3.5,16.74,9.69,16.74,18.57,0,5.29-1.68,9.69-5.05,13.19-3.37,3.5-8.27,5.25-14.7,5.25h-15.29c-6.43,0-11.33-1.75-14.7-5.25-3.37-3.5-5.05-8.12-5.05-13.85v-3.81h21.33v3.81c0,2.54,.55,4.57,1.64,6.1,1.09,1.53,2.57,2.3,4.43,2.3s3.34-.76,4.43-2.3c1.09-1.53,1.64-3.57,1.64-6.1,0-5.03-2.45-8.31-7.35-9.84l-9.39-2.95c-11.16-3.5-16.74-9.52-16.74-18.05Z"></path></g><path class="cls-1" d="M22.59,180.35c-12.48,0-22.59-10.12-22.59-22.59V50.54L25.82,24.72h.25V160.79l116.47,.32-19.04,19.23H22.59Z"></path><path class="cls-1" d="M75.42,150.15h67.96V15.09c0-8.33-6.75-15.09-15.09-15.09H45.95V135.07c0,8.33,6.75,15.09,15.09,15.09h14.39Z"></path></g></g></svg>
